<svg width="12" height="15" viewBox="0 0 12 15" fill="none" xmlns="http://www.w3.org/2000/svg">
<path fill-rule="evenodd" clip-rule="evenodd" d="M12 7V13C12 14.1046 11.1046 15 10 15H2C0.89543 15 0 14.1046 0 13V7C0 5.89543 0.89543 5 2 5V4C2 1.79086 3.79086 0 6 0C8.20914 0 10 1.79086 10 4V5C11.1046 5 12 5.89543 12 7ZM6 2C4.89543 2 4 2.89543 4 4V5H8V4C8 2.89543 7.10457 2 6 2ZM6 7C4.89543 7 4 7.89543 4 9C4 9.74028 4.4022 10.3866 5 10.7324V12C5 12.5523 5.44772 13 6 13C6.55228 13 7 12.5523 7 12V10.7324C7.5978 10.3866 8 9.74028 8 9C8 7.89543 7.10457 7 6 7Z" fill="#16C70B"/>
</svg>
