<svg width="56" height="64" viewBox="0 0 56 64" fill="none" xmlns="http://www.w3.org/2000/svg">
<path fill-rule="evenodd" clip-rule="evenodd" d="M27.6118 14.2202C24.6055 14.1877 21.5953 14.3979 18.6403 14.889C15.0707 15.4809 11.2538 16.3962 8.11611 18.5931C5.61145 20.3469 3.80516 22.9081 2.4669 25.4847C1.08398 28.1472 0.165944 31.1532 0.0336564 34.1967C-0.155072 38.5046 0.422381 43.1153 2.4669 47.0656C5.6638 53.2425 10.651 59.1929 17.1344 62.1824C21.9813 64.4174 27.7665 64.3821 32.8144 63.2026C38.8392 61.7949 44.7681 58.5848 48.9027 53.9234C52.4904 49.8784 54.3629 44.4652 55.1517 39.2807C55.7896 35.0881 55.5669 30.5079 53.85 26.5049C52.46 23.2642 49.9333 20.5141 47.0608 18.5804C43.8953 16.4498 40.0959 15.6171 36.5578 15.0245C33.6182 14.5321 30.6181 14.2533 27.6118 14.2202ZM27.5863 16.3876C30.4735 16.4201 33.3635 16.6878 36.1962 17.1623C39.6482 17.7405 43.1339 18.554 45.8399 20.3753C48.4054 22.1025 50.659 24.5874 51.8464 27.3558C53.3516 30.8653 53.5901 35.0753 52.9992 38.959C52.2539 43.8576 50.463 48.8917 47.2692 52.4926C43.4932 56.7498 37.9298 59.7827 32.3167 61.0944C27.6267 62.1903 22.2778 62.168 18.049 60.2182C12.1871 57.5152 7.4355 51.9353 4.40243 46.075C2.60015 42.5927 2.03448 38.334 2.21166 34.2898C2.32766 31.6209 3.14691 28.8966 4.40243 26.4795C5.64119 24.0943 7.28573 21.8272 9.37101 20.3668C12.0547 18.4879 15.5462 17.5992 18.9976 17.0268C21.8165 16.5595 24.6991 16.3559 27.5863 16.3876Z" fill="#1188EE"/>
<path fill-rule="evenodd" clip-rule="evenodd" d="M3.6325 25.0232C3.41626 25.0356 3.20866 25.112 3.03624 25.2425C2.86382 25.373 2.73441 25.5515 2.66454 25.7555C2.59467 25.9595 2.58752 26.1798 2.64401 26.3878C2.7005 26.5959 2.81805 26.7826 2.98165 26.9239C2.98165 26.9239 4.00148 27.8303 5.32981 28.8542C6.65814 29.8779 8.25513 31.0301 9.7071 31.5973C15.8585 33.9999 22.6284 34.3007 29.0369 34.2431C42.5945 34.1217 53.0801 28.4521 53.0801 28.4521C53.2095 28.3863 53.3244 28.2954 53.418 28.1848C53.5116 28.0742 53.582 27.9462 53.6251 27.8081C53.6682 27.67 53.6831 27.5247 53.6689 27.3808C53.6547 27.2369 53.6117 27.0973 53.5424 26.9702C53.4731 26.8431 53.379 26.7309 53.2656 26.6405C53.1521 26.5501 53.0217 26.4833 52.8819 26.4439C52.742 26.4045 52.5957 26.3934 52.4515 26.4111C52.3073 26.4288 52.1681 26.475 52.0421 26.5471C52.0421 26.5471 41.9736 31.9591 29.0156 32.0757C22.6933 32.132 16.2026 31.8044 10.5026 29.5781C9.5289 29.1979 7.92975 28.1142 6.66555 27.1398C5.40134 26.1655 4.43224 25.3068 4.43224 25.3068C4.3248 25.2087 4.19865 25.133 4.06127 25.0843C3.92389 25.0356 3.77809 25.0147 3.6325 25.0232Z" fill="#1188EE"/>
<path fill-rule="evenodd" clip-rule="evenodd" d="M53.7691 32.7445C53.4868 32.7557 53.2199 32.8756 53.0247 33.079C53.0247 33.079 52.5337 33.5752 51.8932 34.1584C51.2527 34.7419 50.4326 35.4171 49.9832 35.6739C47.3325 37.1892 44.2865 38.1398 41.2073 38.7345C38.5764 39.243 32.4613 39.1198 32.4613 39.1198C32.3182 39.1158 32.1758 39.1398 32.0421 39.1907C31.9084 39.2415 31.7861 39.3182 31.6822 39.4161C31.5782 39.514 31.4947 39.6313 31.4363 39.7613C31.3779 39.8914 31.3459 40.0315 31.342 40.1738C31.3381 40.3162 31.3624 40.458 31.4135 40.5911C31.4647 40.7241 31.5416 40.8456 31.6401 40.949C31.7385 41.0524 31.8564 41.1355 31.9871 41.1935C32.1178 41.2515 32.2587 41.2833 32.4017 41.2872C32.4017 41.2872 38.3693 41.493 41.6242 40.8638C44.8652 40.2379 48.1359 39.2295 51.0679 37.5535C51.8616 37.0996 52.678 36.3885 53.365 35.7628C54.052 35.1371 54.5774 34.6027 54.5774 34.6027C54.7336 34.4491 54.8396 34.2521 54.8813 34.0375C54.923 33.8229 54.8985 33.6009 54.8111 33.4004C54.7237 33.1999 54.5774 33.0304 54.3915 32.9141C54.2055 32.7978 53.9886 32.7402 53.7692 32.7488L53.7691 32.7445Z" fill="#1188EE"/>
<path fill-rule="evenodd" clip-rule="evenodd" d="M52.8844 42.1169C52.7132 42.1221 52.5456 42.1674 52.3952 42.2492C52.3952 42.2492 46.7102 45.155 43.9724 45.9363C42.1375 46.46 37.6554 46.8464 37.6554 46.8464C37.3671 46.8689 37.0996 47.0042 36.9117 47.2229C36.7238 47.4417 36.631 47.7258 36.6535 48.0127C36.6761 48.2996 36.8122 48.5657 37.032 48.7527C37.2518 48.9397 37.5373 49.0321 37.8255 49.0096C37.8255 49.0096 42.1758 48.7029 44.5723 48.019C47.8715 47.0773 53.4034 44.1711 53.4034 44.1711C53.6255 44.0608 53.8032 43.8786 53.9069 43.6541C54.0105 43.4296 54.0341 43.1764 53.9735 42.9368C53.9129 42.6972 53.7719 42.4854 53.5739 42.3365C53.3758 42.1876 53.1325 42.1094 52.8844 42.1169Z" fill="#1188EE"/>
<path fill-rule="evenodd" clip-rule="evenodd" d="M28.1988 18.868C26.1972 18.8897 23.6362 18.9309 21.1969 19.1136C18.7561 19.2956 16.4678 19.5889 14.816 20.2311C11.6689 21.4553 10.1452 23.7659 10.1452 23.7659C10.0666 23.8862 10.0128 24.021 9.98701 24.1622C9.96115 24.3034 9.96373 24.4482 9.9946 24.5884C10.0254 24.7286 10.084 24.8612 10.1668 24.9787C10.2496 25.0962 10.3551 25.1963 10.477 25.2729C10.477 25.2729 15.3798 28.4 19.8867 29.3452C24.3069 30.2727 31.5879 30.3099 36.0473 29.4124C40.5969 28.4973 45.6612 25.344 45.6612 25.344C45.8079 25.2539 45.9309 25.1307 46.0203 24.984C46.1097 24.8373 46.1628 24.6714 46.1752 24.5003C46.1877 24.3292 46.1591 24.1577 46.092 23.9997C46.0248 23.8418 45.9209 23.7017 45.7888 23.5915C45.7888 23.5915 42.5774 20.8203 39.3654 19.7986C36.2441 18.8059 32.1968 18.8324 28.2031 18.8672L28.1988 18.868ZM28.2202 21.0354C32.1987 21.0008 36.1379 21.0571 38.7019 21.8651C40.5288 22.4462 41.8584 23.5854 42.9005 24.367C41.2469 25.2751 38.4458 26.7192 35.6178 27.2879C31.6522 28.0855 24.2666 28.0485 20.3377 27.2249C17.3948 26.6076 14.4943 25.0377 12.9997 24.1857C13.4682 23.63 13.7979 22.9549 15.6073 22.2512C16.7907 21.791 19.0049 21.4537 21.3586 21.2775C23.7123 21.102 26.2355 21.0528 28.2202 21.0354Z" fill="#1188EE"/>
<path fill-rule="evenodd" clip-rule="evenodd" d="M17.815 9.61023L15.7349 10.2495L21.3841 28.5369L23.4642 27.8977L17.815 9.61023Z" fill="#1188EE"/>
<path fill-rule="evenodd" clip-rule="evenodd" d="M46.9118 4.437C46.7773 4.44086 46.6446 4.46952 46.5205 4.52153L37.2639 8.24675C37.0923 8.31615 36.9412 8.42794 36.8251 8.57165C36.709 8.71535 36.6316 8.88623 36.6003 9.06799L33.261 28.2359C33.2367 28.3763 33.2404 28.52 33.272 28.659C33.3035 28.7979 33.3622 28.9294 33.4448 29.0458C33.6115 29.2808 33.8652 29.4401 34.1501 29.4889C34.2912 29.5131 34.4356 29.5095 34.5752 29.4781C34.7148 29.4467 34.8469 29.3883 34.9638 29.3061C35.1999 29.1402 35.3602 28.8877 35.4092 28.6042L38.6422 10.0289L47.3372 6.5323C47.5778 6.44068 47.778 6.26719 47.9022 6.04257C48.0264 5.81796 48.0666 5.55676 48.0156 5.30547C47.9645 5.05417 47.8257 4.82899 47.6236 4.66996C47.4215 4.51093 47.1693 4.42849 46.9118 4.437Z" fill="#1188EE"/>
<path fill-rule="evenodd" clip-rule="evenodd" d="M15.4456 2.81573C15.2919 2.82144 15.1412 2.85954 15.0033 2.92738C14.8655 2.99522 14.7436 3.09135 14.6458 3.20942L7.63535 11.6081C7.48896 11.7845 7.40241 12.0023 7.3881 12.2306C7.3738 12.4589 7.43246 12.686 7.55569 12.8791C7.67892 13.0722 7.8604 13.2216 8.07415 13.3058C8.28789 13.3901 8.52294 13.4047 8.74562 13.3479L26.1016 8.87768C26.3251 8.81997 26.5244 8.69326 26.6707 8.51548C26.817 8.33769 26.9028 8.11814 26.9155 7.8887C26.9283 7.65926 26.8675 7.43169 26.7418 7.2389C26.6162 7.04612 26.4322 6.89805 26.2165 6.81611L15.8709 2.8877C15.7354 2.83587 15.5907 2.81111 15.4456 2.81573ZM15.8242 5.1862L22.2518 7.62889L11.4681 10.4058L15.8242 5.1862Z" fill="#1188EE"/>
<path fill-rule="evenodd" clip-rule="evenodd" d="M14.6162 0.00084492C14.4454 0.00755437 14.2786 0.0540944 14.1293 0.136837C13.9799 0.219579 13.8523 0.336146 13.7566 0.47708C13.661 0.618015 13.6 0.779417 13.5786 0.948157C13.5572 1.1169 13.576 1.28831 13.6335 1.44847L14.5183 4.04752C14.5623 4.18461 14.6332 4.31159 14.727 4.4211C14.8208 4.53062 14.9356 4.62051 15.0647 4.68542C15.1937 4.75032 15.3345 4.78898 15.4787 4.79918C15.6229 4.80938 15.7678 4.7909 15.9048 4.74481C16.0417 4.69872 16.1681 4.62599 16.2765 4.53077C16.385 4.43556 16.4732 4.31979 16.5362 4.19026C16.5992 4.06074 16.6357 3.92002 16.6434 3.77633C16.6512 3.63264 16.6301 3.48878 16.5815 3.35328L15.6967 0.754223C15.6242 0.528304 15.4793 0.332186 15.2841 0.196101C15.0889 0.0600174 14.8543 -0.00850945 14.6162 0.00084492Z" fill="#1188EE"/>
<path fill-rule="evenodd" clip-rule="evenodd" d="M7.64813 33.7733C7.54492 33.781 7.44605 33.818 7.36312 33.8796L1.00776 38.3795C0.949389 38.4209 0.899781 38.4733 0.861775 38.5338C0.823768 38.5943 0.798107 38.6616 0.786257 38.7319C0.774407 38.8023 0.7766 38.8743 0.79271 38.9439C0.808821 39.0134 0.838533 39.0792 0.880152 39.1373C0.92177 39.1954 0.974479 39.2447 1.03526 39.2825C1.09605 39.3203 1.16373 39.3459 1.23444 39.3577C1.30515 39.3694 1.3775 39.3673 1.44736 39.3513C1.51722 39.3353 1.58322 39.3057 1.6416 39.2643L7.9927 34.7601C8.09057 34.6927 8.16356 34.5952 8.20048 34.4826C8.2374 34.37 8.23623 34.2484 8.19714 34.1365C8.15805 34.0246 8.08321 33.9288 7.98406 33.8632C7.88491 33.7977 7.76692 33.7657 7.64813 33.7733Z" fill="#1188EE"/>
<path fill-rule="evenodd" clip-rule="evenodd" d="M9.74115 36.1694C9.63806 36.1817 9.54064 36.2232 9.46039 36.2887L2.2415 41.9403C2.18085 41.9826 2.12949 42.0367 2.09058 42.0993C2.05167 42.162 2.02603 42.232 2.0152 42.3049C2.00437 42.3778 2.00858 42.452 2.0276 42.5232C2.04662 42.5944 2.08004 42.6611 2.12581 42.719C2.17158 42.7769 2.22873 42.8251 2.29379 42.8603C2.35884 42.8955 2.43041 42.917 2.50415 42.9238C2.57789 42.9305 2.65223 42.9223 2.72263 42.8994C2.79303 42.8766 2.85802 42.8396 2.91361 42.7909L10.1325 37.1396C10.2272 37.0677 10.2956 36.9669 10.3272 36.8526C10.3587 36.7383 10.3518 36.6167 10.3074 36.5068C10.263 36.3968 10.1835 36.3043 10.0813 36.2435C9.979 36.1827 9.85952 36.1561 9.74115 36.1694Z" fill="#1188EE"/>
<path fill-rule="evenodd" clip-rule="evenodd" d="M12.6593 38.18C12.5367 38.1863 12.4197 38.2336 12.3275 38.3144L3.56869 45.786C3.5129 45.8319 3.46686 45.8886 3.43329 45.9524C3.39971 46.0163 3.37927 46.0862 3.37316 46.158C3.36705 46.2298 3.3754 46.3019 3.3977 46.3704C3.42001 46.439 3.45583 46.5026 3.50308 46.5572C3.55032 46.6118 3.60803 46.6566 3.67284 46.6887C3.73765 46.7209 3.80825 46.7396 3.88051 46.7443C3.95277 46.749 4.02524 46.7393 4.09368 46.7157C4.16212 46.6922 4.22516 46.6553 4.2791 46.6072L13.0379 39.1367C13.1256 39.0637 13.1879 38.9651 13.2161 38.8549C13.2443 38.7447 13.237 38.6284 13.1951 38.5226C13.1532 38.4168 13.0789 38.3267 12.9828 38.2652C12.8866 38.2037 12.7735 38.1739 12.6593 38.18Z" fill="#1188EE"/>
<path fill-rule="evenodd" clip-rule="evenodd" d="M14.8713 41.1476C14.7481 41.1551 14.6311 41.2039 14.5395 41.2862L5.49142 49.1388C5.43488 49.1847 5.38818 49.2413 5.3541 49.3055C5.32002 49.3697 5.29926 49.4403 5.29305 49.5126C5.28685 49.585 5.29532 49.6577 5.31796 49.7267C5.34061 49.7957 5.37696 49.8595 5.42487 49.9143C5.47278 49.9691 5.53127 50.0139 5.59685 50.0458C5.66244 50.0776 5.73379 50.0959 5.80666 50.0997C5.87953 50.1036 5.95244 50.093 6.02106 50.0683C6.08967 50.0435 6.15259 50.0052 6.20608 49.9558L15.2542 42.1032C15.3422 42.03 15.4048 41.9308 15.4329 41.8201C15.461 41.7094 15.4533 41.5928 15.4109 41.4868C15.3684 41.3807 15.2934 41.2907 15.1965 41.2296C15.0996 41.1685 14.9858 41.1405 14.8713 41.1476Z" fill="#1188EE"/>
<path fill-rule="evenodd" clip-rule="evenodd" d="M17.2918 43.8315C17.1685 43.835 17.05 43.88 16.9558 43.9593L7.04411 52.1C6.93243 52.1915 6.86184 52.3234 6.84788 52.4667C6.83393 52.61 6.87774 52.7527 6.96969 52.8638C7.06164 52.975 7.19419 53.0454 7.33818 53.0593C7.48217 53.0732 7.62581 53.0294 7.7375 52.9379L17.6492 44.7974C17.7386 44.7264 17.8032 44.6293 17.834 44.5196C17.8647 44.41 17.86 44.2934 17.8204 44.1865C17.7809 44.0797 17.7085 43.9879 17.6136 43.9243C17.5188 43.8608 17.4062 43.8278 17.2918 43.8315Z" fill="#1188EE"/>
<path fill-rule="evenodd" clip-rule="evenodd" d="M19.5889 47.184C19.4847 47.1897 19.3843 47.225 19.2996 47.2859L9.09447 54.4696C9.03608 54.5107 8.98642 54.5628 8.9483 54.6231C8.91017 54.6833 8.88434 54.7505 8.87228 54.8207C8.86023 54.8909 8.86219 54.9627 8.87804 55.0321C8.89389 55.1015 8.92333 55.1671 8.96467 55.2252C9.00601 55.2833 9.05846 55.3328 9.119 55.3708C9.17954 55.4087 9.24698 55.4342 9.3175 55.4462C9.38801 55.4581 9.46021 55.4564 9.52997 55.4406C9.59973 55.4248 9.66568 55.3955 9.72405 55.3544L19.9292 48.1706C20.0267 48.1034 20.0994 48.0063 20.1363 47.8941C20.1733 47.782 20.1724 47.661 20.1339 47.5494C20.0954 47.4378 20.0214 47.3417 19.923 47.2758C19.8246 47.2099 19.7073 47.1775 19.5889 47.184Z" fill="#1188EE"/>
<path fill-rule="evenodd" clip-rule="evenodd" d="M22.5113 49.0976C22.3881 49.0965 22.2681 49.1369 22.171 49.2124L12.6422 56.3964C12.5272 56.4834 12.4516 56.6122 12.432 56.7547C12.4125 56.8971 12.4506 57.0415 12.5381 57.156C12.6255 57.2705 12.7551 57.3459 12.8983 57.3653C13.0415 57.3847 13.1865 57.3467 13.3016 57.2597L22.8304 50.0762C22.9223 50.0087 22.9906 49.9141 23.0256 49.8059C23.0605 49.6976 23.0603 49.5809 23.025 49.4728C22.9897 49.3646 22.9211 49.2701 22.8289 49.2029C22.7367 49.1357 22.6256 49.0985 22.5113 49.0976Z" fill="#1188EE"/>
<path fill-rule="evenodd" clip-rule="evenodd" d="M25.4083 51.1083C25.2851 51.1072 25.1651 51.1476 25.068 51.2232L14.765 58.7879C14.7062 58.8296 14.6562 58.8826 14.6182 58.9437C14.5801 59.0049 14.5546 59.0727 14.5432 59.1437C14.5319 59.2148 14.5348 59.2874 14.5519 59.3573C14.569 59.4271 14.5999 59.4931 14.6428 59.5509C14.6858 59.6088 14.7398 59.6575 14.8019 59.6943C14.8639 59.7312 14.9328 59.7556 15.0043 59.7658C15.0759 59.7759 15.1487 59.7715 15.2187 59.7533C15.2886 59.7351 15.3542 59.7033 15.4116 59.6597L25.7146 52.091C25.8076 52.0247 25.8772 51.9308 25.9136 51.8229C25.95 51.7151 25.9514 51.5985 25.9175 51.4898C25.8836 51.3811 25.8162 51.2858 25.7248 51.2173C25.6334 51.1489 25.5227 51.1106 25.4083 51.1083Z" fill="#1188EE"/>
<path fill-rule="evenodd" clip-rule="evenodd" d="M28.3052 53.4068C28.1629 53.4009 28.0239 53.4506 27.9181 53.5454L19.5464 60.8268C19.4898 60.8727 19.4431 60.9293 19.4091 60.9935C19.375 61.0577 19.3542 61.1283 19.348 61.2007C19.3418 61.273 19.3503 61.3457 19.3729 61.4147C19.3956 61.4837 19.4319 61.5475 19.4798 61.6023C19.5277 61.6571 19.5862 61.7019 19.6518 61.7338C19.7174 61.7656 19.7887 61.7839 19.8616 61.7877C19.9345 61.7916 20.0074 61.781 20.076 61.7563C20.1446 61.7315 20.2076 61.6932 20.261 61.6438L28.637 54.3627C28.7214 54.2922 28.7823 54.1977 28.8117 54.092C28.8412 53.9864 28.8376 53.8745 28.8017 53.7709C28.7657 53.6672 28.699 53.5767 28.6104 53.5116C28.5218 53.4464 28.4153 53.4105 28.3052 53.4068Z" fill="#1188EE"/>
<path fill-rule="evenodd" clip-rule="evenodd" d="M31.8147 55.9934C31.6734 56.0012 31.5407 56.0633 31.4447 56.1667L25.285 62.5845C25.2355 62.636 25.1968 62.6965 25.1709 62.7629C25.145 62.8292 25.1324 62.8999 25.134 62.9711C25.1356 63.0422 25.1513 63.1123 25.1801 63.1775C25.2089 63.2426 25.2503 63.3016 25.302 63.3508C25.3537 63.4 25.4146 63.4385 25.4812 63.4643C25.5479 63.49 25.619 63.5023 25.6905 63.5008C25.762 63.4992 25.8325 63.4837 25.8979 63.455C25.9634 63.4263 26.0225 63.3852 26.072 63.3338L32.2316 56.916C32.3092 56.8382 32.3613 56.7389 32.381 56.6311C32.4007 56.5232 32.3871 56.412 32.3419 56.312C32.2967 56.212 32.2222 56.1282 32.1281 56.0712C32.034 56.0143 31.9247 55.9873 31.8147 55.9934Z" fill="#1188EE"/>
</svg>
