<svg width="152" height="45" viewBox="0 0 152 45" fill="none" xmlns="http://www.w3.org/2000/svg">
<path d="M41.2744 40.4613C38.7544 40.4613 36.8224 39.9517 35.4784 38.9326C34.1584 37.8852 33.4984 36.3566 33.4984 34.3467C33.4984 33.3277 33.7864 32.4926 34.3624 31.8415C34.9624 31.1621 35.7304 30.8224 36.6664 30.8224C37.2184 30.8507 37.6384 31.0206 37.9264 31.332C38.2144 31.615 38.3584 31.884 38.3584 32.1387C38.3584 32.167 38.2384 32.2661 37.9984 32.436C37.7584 32.6058 37.5424 32.8606 37.3504 33.2003C37.1584 33.54 37.0624 34.0071 37.0624 34.6015C37.0624 35.932 37.3984 36.9652 38.0704 37.7012C38.7664 38.4089 39.8344 38.7628 41.2744 38.7628C42.2584 38.7628 43.1224 38.5363 43.8664 38.0834C44.6104 37.6305 45.1744 37.036 45.5584 36.3C45.9664 35.5357 46.1704 34.7431 46.1704 33.9221C46.1704 32.903 45.9184 32.0255 45.4144 31.2895C44.9344 30.5535 44.3344 29.9449 43.6144 29.4636C42.8944 28.9541 41.9104 28.3738 40.6624 27.7227C39.2224 26.9584 38.0584 26.2648 37.1704 25.6421C36.2824 25.0193 35.5264 24.1984 34.9024 23.1793C34.2784 22.1319 33.9664 20.8439 33.9664 19.3153C33.9664 16.8525 34.6744 15.0125 36.0904 13.7952C37.5304 12.578 39.4144 11.9694 41.7424 11.9694C43.5664 11.9694 45.1504 12.4223 46.4944 13.3281C47.8624 14.234 48.5464 15.5645 48.5464 17.3196C48.5464 18.3386 48.2464 19.1879 47.6464 19.8673C47.0704 20.5183 46.3144 20.8439 45.3784 20.8439C44.8264 20.8156 44.4064 20.6599 44.1184 20.3768C43.8304 20.0654 43.6864 19.7823 43.6864 19.5276C43.6864 19.4993 43.8424 19.4002 44.1544 19.2303C44.4904 19.0605 44.7784 18.8057 45.0184 18.466C45.2824 18.1263 45.4144 17.6593 45.4144 17.0648C45.4144 16.0174 45.0664 15.1965 44.3704 14.602C43.6984 14.0075 42.8344 13.7103 41.7784 13.7103C40.3144 13.7103 39.1984 14.1208 38.4304 14.9417C37.6864 15.7343 37.3144 16.7251 37.3144 17.914C37.3144 18.9048 37.5424 19.7399 37.9984 20.4193C38.4544 21.0704 39.1864 21.7214 40.1944 22.3725C41.0104 22.8821 41.8984 23.3916 42.8584 23.9011C44.3944 24.7221 45.6064 25.4722 46.4944 26.1516C47.4064 26.831 48.1624 27.7227 48.7624 28.8267C49.3864 29.9307 49.6984 31.3036 49.6984 32.9455C49.6984 34.3609 49.3144 35.6489 48.5464 36.8095C47.8024 37.9418 46.7824 38.8335 45.4864 39.4846C44.2144 40.1357 42.8104 40.4613 41.2744 40.4613Z" fill="white"/>
<path d="M59.4994 40.1216C57.8674 40.1216 56.5714 39.5412 55.6114 38.3806C54.6514 37.22 54.1714 35.6914 54.1714 33.7947V25.9393C54.1714 25.2033 54.1474 24.6655 54.0994 24.3258C54.0754 23.9861 53.9314 23.6888 53.6674 23.4341C53.4034 23.1793 52.9594 23.0519 52.3354 23.0519C52.0474 23.0519 51.8314 23.0095 51.6874 22.9245C51.5434 22.8113 51.4714 22.5707 51.4714 22.2027C51.4714 22.0328 51.5194 21.8771 51.6154 21.7356C51.7114 21.5657 51.8554 21.4667 52.0474 21.4384C53.5594 21.1836 54.8554 20.8156 55.9354 20.3344C56.2714 20.1928 56.5474 20.1079 56.7634 20.0796H56.8714C57.2554 20.0796 57.4474 20.3485 57.4474 20.8864V33.7523C57.4474 35.0544 57.7954 36.0594 58.4914 36.7671C59.1874 37.4465 59.9914 37.7862 60.9034 37.7862C62.0314 37.7862 62.9914 37.4606 63.7834 36.8095C64.5754 36.1585 65.1034 35.5074 65.3674 34.8563V25.9393C65.3674 25.2033 65.3434 24.6655 65.2954 24.3258C65.2714 23.9861 65.1274 23.6888 64.8634 23.4341C64.5994 23.1793 64.1554 23.0519 63.5314 23.0519C63.2434 23.0519 63.0274 23.0095 62.8834 22.9245C62.7394 22.8113 62.6674 22.5707 62.6674 22.2027C62.6674 22.0328 62.7154 21.8771 62.8114 21.7356C62.9074 21.5657 63.0514 21.4667 63.2434 21.4384C64.7554 21.1836 66.0514 20.8156 67.1314 20.3344C67.4674 20.1928 67.7434 20.1079 67.9594 20.0796H68.0674C68.4514 20.0796 68.6434 20.3485 68.6434 20.8864V35.5781C68.6434 37.2483 69.5914 38.0834 71.4874 38.0834C71.8954 38.0834 72.0994 38.3523 72.0994 38.8902C72.0994 39.2865 71.8954 39.5271 71.4874 39.612L65.6914 40.0791C65.5234 40.0791 65.4274 40.0083 65.4034 39.8668C65.3794 39.7535 65.3674 39.5412 65.3674 39.2299V36.852H65.2954C64.5994 37.6163 64.0354 38.2108 63.6034 38.6354C63.1714 39.0317 62.6074 39.3714 61.9114 39.6545C61.2394 39.9659 60.4354 40.1216 59.4994 40.1216Z" fill="white"/>
<path d="M74.0687 39.7394C73.9007 39.7394 73.7567 39.6545 73.6367 39.4846C73.5407 39.3148 73.4927 39.1166 73.4927 38.8902C73.5167 38.5222 73.5887 38.3099 73.7087 38.2532C73.8287 38.1683 74.0447 38.1259 74.3567 38.1259C74.9807 38.1259 75.4247 37.9985 75.6887 37.7437C75.9527 37.4889 76.0967 37.1917 76.1207 36.852C76.1687 36.5123 76.1927 35.9745 76.1927 35.2384V25.5147C76.1927 24.7787 76.1687 24.2408 76.1207 23.9011C76.0967 23.5614 75.9527 23.2642 75.6887 23.0094C75.4247 22.7547 74.9807 22.6273 74.3567 22.6273C74.0687 22.6273 73.8527 22.5848 73.7087 22.4999C73.5647 22.3867 73.4927 22.1461 73.4927 21.778C73.4927 21.6082 73.5407 21.4525 73.6367 21.311C73.7327 21.1411 73.8767 21.042 74.0687 21.0137C75.6287 20.7307 76.9127 20.3627 77.9207 19.9097C78.3287 19.7682 78.6047 19.6833 78.7487 19.655H78.8567C79.2407 19.655 79.4327 19.9239 79.4327 20.4617V23.0944H79.5407C80.3807 22.1036 81.2327 21.3251 82.0967 20.759C82.9607 20.1645 83.7407 19.8673 84.4367 19.8673C85.2287 19.8673 85.8527 20.2211 86.3087 20.9288C86.7887 21.6082 87.0287 22.4008 87.0287 23.3067C87.0287 24.0993 86.8247 24.807 86.4167 25.4298C86.0087 26.0525 85.4447 26.3639 84.7247 26.3639C84.3887 26.3639 84.0887 26.279 83.8247 26.1092C83.5847 25.9393 83.4527 25.7978 83.4287 25.6845C83.4527 25.6279 83.5727 25.4581 83.7887 25.175C84.0047 24.8636 84.1127 24.5098 84.1127 24.1134C84.1127 23.6039 83.9927 23.1934 83.7527 22.8821C83.5367 22.5707 83.2367 22.415 82.8527 22.415C82.4447 22.415 81.9287 22.6556 81.3047 23.1368C80.6807 23.5898 80.0687 24.1701 79.4687 24.8778V35.2384C79.4687 35.9745 79.4927 36.5123 79.5407 36.852C79.5887 37.1917 79.7447 37.4889 80.0087 37.7437C80.2727 37.9985 80.7167 38.1259 81.3407 38.1259H81.5567C81.7487 38.1259 81.8927 38.1683 81.9887 38.2532C82.0847 38.3382 82.1447 38.5505 82.1687 38.8902C82.1687 39.1166 82.1207 39.3148 82.0247 39.4846C81.9287 39.6545 81.7847 39.7394 81.5927 39.7394C80.2007 39.6545 78.9407 39.612 77.8127 39.612C76.7327 39.612 75.4847 39.6545 74.0687 39.7394Z" fill="white"/>
<path d="M129.981 40.1215C128.349 40.1215 126.897 39.6686 125.625 38.7628C124.353 37.8286 123.357 36.6114 122.637 35.1111C121.941 33.5824 121.593 31.9689 121.593 30.2704C121.593 28.1473 122.013 26.3073 122.853 24.7504C123.693 23.1651 124.761 21.962 126.057 21.1411C127.353 20.2919 128.661 19.8673 129.981 19.8673C131.613 19.8673 133.065 20.3343 134.337 21.2685C135.609 22.1744 136.593 23.3916 137.289 24.9202C138.009 26.4205 138.369 28.0199 138.369 29.7184C138.369 31.8415 137.937 33.6957 137.073 35.2809C136.233 36.8378 135.165 38.0409 133.869 38.8902C132.573 39.7111 131.277 40.1215 129.981 40.1215ZM129.981 38.5505C131.613 38.5505 132.801 37.7295 133.545 36.0877C134.313 34.4458 134.697 32.3227 134.697 29.7184C134.697 27.2839 134.301 25.3024 133.509 23.7737C132.741 22.2168 131.565 21.4383 129.981 21.4383C128.325 21.4383 127.125 22.2451 126.381 23.8587C125.637 25.4722 125.265 27.5812 125.265 30.1855C125.265 32.62 125.649 34.6298 126.417 36.2151C127.185 37.772 128.373 38.5505 129.981 38.5505Z" fill="white"/>
<path d="M147.44 40.3339C146.264 40.3339 145.256 39.8243 144.416 38.8052C143.576 37.7862 143.156 36.3283 143.156 34.4317V21.9479L141.068 22.0328C140.924 22.0328 140.804 21.962 140.708 21.8205C140.612 21.6507 140.564 21.4667 140.564 21.2685C140.564 21.0137 140.6 20.8014 140.672 20.6316C140.768 20.4334 140.9 20.3202 141.068 20.2919C141.908 20.0937 142.556 19.7823 143.012 19.3577C143.492 18.9048 143.84 18.4236 144.056 17.914C144.272 17.3762 144.536 16.5694 144.848 15.4937C144.968 15.1257 145.232 14.9417 145.64 14.9417C145.808 14.9417 145.976 14.9983 146.144 15.1115C146.312 15.1965 146.396 15.338 146.396 15.5362L146.144 20.3768L150.356 20.0796H150.428C150.74 20.0796 150.896 20.3485 150.896 20.8863C150.896 21.1977 150.848 21.495 150.752 21.778C150.68 22.0328 150.584 22.1602 150.464 22.1602L146.432 22.0328V34.9412C146.432 35.8754 146.588 36.6538 146.9 37.2766C147.236 37.8994 147.776 38.2108 148.52 38.2108C149.264 38.2108 149.924 38.0551 150.5 37.7437C150.812 37.6022 151.004 37.5314 151.076 37.5314C151.244 37.5314 151.376 37.6163 151.472 37.7862C151.568 37.9277 151.664 38.1258 151.76 38.3806C151.784 38.4372 151.796 38.508 151.796 38.5929C151.796 38.7062 151.724 38.8335 151.58 38.9751C150.884 39.5129 150.224 39.8668 149.6 40.0366C149 40.2348 148.28 40.3339 147.44 40.3339Z" fill="white"/>
<path d="M89.2536 39.4846C89.3496 39.6545 89.4936 39.7394 89.6856 39.7394C91.0536 39.6545 92.3016 39.612 93.4296 39.612C95.0376 39.612 96.5376 39.6545 97.9296 39.7394C98.0976 39.7394 98.2296 39.6545 98.3256 39.4846C98.4216 39.3148 98.4696 39.1166 98.4696 38.8902C98.4456 38.5505 98.3856 38.3382 98.2896 38.2532C98.2176 38.1683 98.0736 38.1259 97.8576 38.1259H97.6416C96.8496 38.1259 96.2856 38.0551 95.9496 37.9135C95.6136 37.772 95.3856 37.5172 95.2656 37.1492C95.1456 36.7529 95.0856 36.116 95.0856 35.2384V22.0328H98.9016C99.0696 22.0328 99.2136 21.9479 99.3336 21.778C99.4536 21.6082 99.5136 21.41 99.5136 21.1836C99.4896 20.8439 99.4176 20.6316 99.2976 20.5467C99.2016 20.4334 99.0456 20.3768 98.8296 20.3768H95.0856V17.8291C95.0856 16.4703 95.1336 15.2814 95.2296 14.2623C95.3256 13.2149 95.6016 12.2524 96.0576 11.3749C96.5136 10.4974 97.2216 10.0586 98.1816 10.0586C98.292 10.0586 98.3988 10.0662 98.5019 10.0816C98.4881 9.60249 98.5155 9.12055 98.581 8.65943C98.5321 8.65804 98.483 8.65734 98.4336 8.65734C96.3216 8.71396 94.6776 9.66227 93.5016 11.5023C92.3496 13.314 91.7736 15.6777 91.7736 18.5934V20.3768H89.6136C89.3016 20.3768 89.0856 20.4193 88.9656 20.5042C88.8456 20.5608 88.7736 20.7873 88.7496 21.1836C88.7496 21.41 88.7976 21.6082 88.8936 21.778C89.0136 21.9479 89.1696 22.0328 89.3616 22.0328H91.7736V35.2384C91.7736 36.0028 91.7496 36.5548 91.7016 36.8945C91.6776 37.2058 91.5336 37.4889 91.2696 37.7437C91.0056 37.9985 90.5616 38.1259 89.9376 38.1259C89.6256 38.1259 89.4096 38.1683 89.2896 38.2532C89.1936 38.3099 89.1336 38.5222 89.1096 38.8902C89.1096 39.1166 89.1576 39.3148 89.2536 39.4846Z" fill="white"/>
<path fill-rule="evenodd" clip-rule="evenodd" d="M108.498 9.83684C108.498 12.4425 106.707 14.5548 104.498 14.5548C102.289 14.5548 100.498 12.4425 100.498 9.83684C100.498 7.23117 102.289 5.11886 104.498 5.11886C106.707 5.11886 108.498 7.23117 108.498 9.83684ZM104.498 12.1958C105.603 12.1958 106.498 11.1397 106.498 9.83684C106.498 8.53401 105.603 7.47785 104.498 7.47785C103.394 7.47785 102.498 8.53401 102.498 9.83684C102.498 11.1397 103.394 12.1958 104.498 12.1958Z" fill="white"/>
<path fill-rule="evenodd" clip-rule="evenodd" d="M102.745 16.607V39.3572C102.745 39.612 102.805 39.8102 102.925 39.9517C103.045 40.1216 103.213 40.2065 103.429 40.2065C103.645 40.2065 103.825 40.0932 103.969 39.8668C104.113 39.6686 104.245 39.3714 104.365 38.9751C104.485 38.5788 104.593 38.2674 104.689 38.0409H104.869C106.429 39.428 108.277 40.1216 110.413 40.1216C111.853 40.1216 113.209 39.6686 114.481 38.7628C115.753 37.8569 116.761 36.6255 117.505 35.0686C118.273 33.4834 118.657 31.7424 118.657 29.8458C118.657 27.9209 118.321 26.2082 117.649 24.7079C117.001 23.1793 116.101 21.9903 114.949 21.1411C113.797 20.2919 112.513 19.8673 111.097 19.8673C110.233 19.8673 109.357 20.0796 108.469 20.5042C107.605 20.9005 106.825 21.5091 106.129 22.33H106.021V16.6838C104.951 17.0143 103.804 16.9879 102.745 16.607ZM113.617 36.3425C112.729 37.8994 111.553 38.6779 110.089 38.6779C109.321 38.6779 108.637 38.4797 108.037 38.0834C107.461 37.6871 106.993 37.22 106.633 36.6821C106.297 36.116 106.093 35.6064 106.021 35.1535V23.9436C107.053 22.6414 108.325 21.9904 109.837 21.9904C111.541 21.9904 112.825 22.783 113.689 24.3682C114.553 25.9251 114.985 27.8076 114.985 30.0156C114.985 32.6483 114.529 34.7572 113.617 36.3425Z" fill="white"/>
<path fill-rule="evenodd" clip-rule="evenodd" d="M9.63967 1.32017C10.1612 0.880769 10.8618 0.880769 11.3834 1.32017C17.8802 6.79376 20.8255 13.3556 21.0111 22.7701C21.0968 27.2656 20.7299 31.3818 19.6133 34.9377C18.4681 38.4956 16.4315 41.7829 13.4332 44.5588C13.0549 44.9063 12.5585 45.0195 12.0976 44.8635C11.1793 44.5526 11.023 43.2687 10.5115 42.4684C9.99974 43.2692 9.84439 44.5523 8.9254 44.8635C8.46452 45.0195 7.96817 44.9063 7.58987 44.5588C4.5915 41.7829 2.55499 38.4956 1.40971 34.9377C0.293102 31.3818 -0.0737632 27.2656 0.0119281 22.7701C0.197553 13.3556 3.1428 6.79376 9.63967 1.32017ZM12.9984 40.5037C14.8746 38.4691 16.0052 36.2488 16.8041 33.696C17.8092 30.5741 18.0991 27.1262 18.0119 22.8524C17.8672 15.5114 16.4108 10.734 11.9984 6.29835V19.2728C13.7236 19.7965 14.4984 21.7924 14.4984 23.9908C14.4984 26.1891 13.7236 28.1851 11.9984 28.7088V39.3242C11.9984 39.3242 12.8001 40.196 12.9984 40.5037ZM7.99835 40.5037C6.12206 38.4691 5.01787 36.2488 4.21893 33.696C3.21389 30.5741 2.92391 27.1262 3.01112 22.8524C3.15557 15.526 4.60442 10.7281 8.99835 6.29835V19.2728C7.27312 19.7965 6.49835 21.7924 6.49835 23.9908C6.49835 26.1891 7.27312 28.1851 8.99835 28.7088V39.3242C8.99835 39.3242 8.18923 40.2073 7.99835 40.5037ZM10.4984 21.6318C9.39378 21.6318 8.49835 22.6879 8.49835 23.9908C8.49835 25.2936 9.39378 26.3498 10.4984 26.3498C11.6029 26.3498 12.4984 25.2936 12.4984 23.9908C12.4984 22.6879 11.6029 21.6318 10.4984 21.6318Z" fill="white"/>
</svg>
