<svg width="22" height="39" viewBox="0 0 22 39" fill="none" xmlns="http://www.w3.org/2000/svg">
<path fill-rule="evenodd" clip-rule="evenodd" d="M9.63967 1.09963C10.1612 0.72672 10.8618 0.72672 11.3834 1.09963C17.8802 5.74489 20.8255 11.3137 21.0111 19.3035C21.0968 23.1187 20.7299 26.612 19.6133 29.6297C18.4681 32.6492 16.4315 35.439 13.4332 37.7948C13.0549 38.0897 12.5585 38.1858 12.0976 38.0534C11.1793 37.7895 11.023 36.6999 10.5115 36.0208C9.99974 36.7003 9.84439 37.7893 8.9254 38.0534C8.46452 38.1858 7.96817 38.0897 7.58987 37.7948C4.5915 35.439 2.55499 32.6492 1.40971 29.6297C0.293102 26.612 -0.0737632 23.1187 0.0119281 19.3035C0.197553 11.3137 3.1428 5.74489 9.63967 1.09963ZM12.9984 34.3534C14.8746 32.6267 16.0052 30.7424 16.8041 28.5759C17.8092 25.9265 18.0991 23.0004 18.0119 19.3733C17.8672 13.1432 16.4108 9.08885 11.9984 5.32445V16.3354C13.7236 16.7798 14.4984 18.4737 14.4984 20.3394C14.4984 22.2051 13.7236 23.899 11.9984 24.3434V33.3524C11.9984 33.3524 12.8001 34.0922 12.9984 34.3534ZM7.99835 34.3534C6.12206 32.6267 5.01787 30.7424 4.21893 28.5759C3.21389 25.9265 2.92391 23.0004 3.01112 19.3733C3.15557 13.1556 4.60442 9.08384 8.99835 5.32445V16.3354C7.27312 16.7798 6.49835 18.4737 6.49835 20.3394C6.49835 22.2051 7.27312 23.899 8.99835 24.3434V33.3524C8.99835 33.3524 8.18923 34.1018 7.99835 34.3534ZM10.4984 18.3374C9.39378 18.3374 8.49835 19.2337 8.49835 20.3394C8.49835 21.4451 9.39378 22.3414 10.4984 22.3414C11.6029 22.3414 12.4984 21.4451 12.4984 20.3394C12.4984 19.2337 11.6029 18.3374 10.4984 18.3374Z" fill="#1188EE"/>
</svg>
