<svg width="51" height="53" viewBox="0 0 51 53" fill="none" xmlns="http://www.w3.org/2000/svg">
<path fill-rule="evenodd" clip-rule="evenodd" d="M11.6366 9.19504C11.4882 9.18995 11.3403 9.21526 11.202 9.26912C11.0638 9.32298 10.938 9.40432 10.8326 9.5083C10.8326 9.5083 6.67676 13.5773 4.70269 15.9047C3.52609 17.2914 2.07821 18.7264 1.17619 20.6459C0.487679 22.1108 -0.0443484 23.7889 0.0191187 25.5479C0.0792797 27.2034 0.75368 28.6567 1.38037 29.9166C2.34456 31.8551 4.68992 34.6282 4.68992 34.6282C4.78069 34.7382 4.89235 34.8293 5.01854 34.8964C5.14473 34.9636 5.28298 35.0055 5.42539 35.0195C5.56779 35.0334 5.71157 35.0192 5.84851 34.9779C5.98545 34.9366 6.11287 34.8688 6.22349 34.7784C6.33411 34.6881 6.42576 34.577 6.49322 34.4514C6.56067 34.3258 6.60261 34.1883 6.61663 34.0466C6.63065 33.9049 6.61648 33.7617 6.57493 33.6254C6.53338 33.4891 6.46527 33.3624 6.37448 33.2524C6.37448 33.2524 4.00355 30.3038 3.33292 28.9557C2.73514 27.7538 2.23247 26.5613 2.19287 25.4717C2.14744 24.2125 2.55262 22.8357 3.15001 21.5645C3.84097 20.0941 5.1167 18.7742 6.36597 17.3016C7.92051 15.4691 10.6466 12.7917 11.5345 11.9128C12.3361 12.8146 14.5182 15.2339 15.648 16.9164C16.7479 18.5548 17.8259 20.1346 18.2982 21.7846C18.7504 23.3638 18.8834 25.0857 18.6087 26.6655C18.4346 27.6629 17.958 28.6817 17.3368 29.5949C17.0707 29.9861 16.3697 30.7108 15.7671 31.267C15.1646 31.8229 14.6568 32.2406 14.6568 32.2406C14.5465 32.3315 14.4552 32.4432 14.3882 32.5692C14.3212 32.6952 14.2798 32.8332 14.2664 32.9751C14.253 33.117 14.2677 33.2601 14.3099 33.3963C14.3521 33.5325 14.4208 33.659 14.5121 33.7688C14.6035 33.8786 14.7156 33.9696 14.8423 34.0363C14.9689 34.103 15.1074 34.1441 15.25 34.1575C15.3927 34.1708 15.5365 34.1561 15.6734 34.1141C15.8103 34.0721 15.9375 34.0036 16.0479 33.9127C16.0479 33.9127 16.597 33.4546 17.2475 32.8544C17.8979 32.2541 18.6434 31.5404 19.1405 30.8098C19.8893 29.7094 20.5129 28.4364 20.757 27.038C21.0961 25.0874 20.9256 23.0628 20.3911 21.1962C19.7858 19.0815 18.5452 17.3347 17.4602 15.7184C15.8934 13.385 12.4065 9.5591 12.4065 9.5591C12.309 9.45079 12.1906 9.36321 12.0583 9.3014C11.926 9.23959 11.7826 9.20504 11.6366 9.19954V9.19504Z" fill="#1188EE"/>
<path fill-rule="evenodd" clip-rule="evenodd" d="M14.593 0.114836C11.7912 -0.417694 9.18943 1.01171 7.1231 2.14677C5.19413 3.20642 3.33817 4.68191 2.10772 6.6382C0.730044 8.82858 0.183478 11.4153 0.019048 13.8474C-0.0778799 15.2895 0.212131 17.1083 0.503995 18.6478C0.795859 20.1873 1.10805 21.4163 1.10805 21.4163L3.218 20.8872C3.218 20.8872 2.92216 19.7143 2.64372 18.2456C2.36527 16.7768 2.12638 14.9796 2.1928 13.9913C2.342 11.7844 2.85303 9.54003 3.95392 7.78964C4.9176 6.25772 6.48675 4.97241 8.17807 4.04325C10.2016 2.93159 12.3978 1.90472 14.1846 2.24414C15.7957 2.55039 17.4134 4.02496 18.4896 5.618C19.6103 7.27693 20.1332 9.50617 20.1358 11.6207C20.1375 13.0321 19.1886 14.6315 18.7193 16.6455C18.4312 17.8822 18.0301 20.2014 18.0301 20.2014L20.1784 20.5697C20.1784 20.5697 20.5916 18.2071 20.842 17.1323H20.8376C21.1947 15.6 22.3164 13.8496 22.3137 11.6207C22.3107 9.16502 21.7388 6.54089 20.2974 4.40731C19.0248 2.52362 17.117 0.594482 14.593 0.114836Z" fill="#1188EE"/>
<path fill-rule="evenodd" clip-rule="evenodd" d="M1.76316 29.7302C1.76316 29.7302 0.493171 36.7917 0.593336 40.6731C0.647862 42.8205 0.367729 45.5355 1.82272 47.8314H1.81847C3.19547 50.0049 5.54768 51.6921 8.13129 52.1535C10.5717 52.5892 13.0774 51.7444 14.9971 50.4518C17.1835 48.9799 18.7513 46.663 19.5616 44.2459C20.4101 41.7144 19.7907 39.1842 19.7105 37.0621C19.6253 34.7723 19.1277 30.4671 19.1277 30.4671L16.9624 30.7126C16.9624 30.7126 17.4602 35.0756 17.5367 37.1428C17.627 39.5513 18.087 41.7917 17.4942 43.5601C16.8221 45.5654 15.4745 47.5122 13.7805 48.6529C12.2455 49.6863 10.1835 50.3176 8.5184 50.0203C6.65191 49.6871 4.69917 48.3085 3.66468 46.6758C2.72778 45.1974 2.83009 42.9314 2.77135 40.6183C2.68595 37.3091 3.91141 30.103 3.91141 30.103L1.76316 29.7302Z" fill="#1188EE"/>
<path fill-rule="evenodd" clip-rule="evenodd" d="M11.5047 6.78645C11.2158 6.78535 10.9384 6.8983 10.7334 7.10076C10.5284 7.30322 10.4125 7.57849 10.4114 7.86591L10.3646 10.355C10.3618 10.4973 10.3871 10.6386 10.4392 10.7712C10.4913 10.9038 10.5691 11.0249 10.6682 11.1276C10.7673 11.2302 10.8857 11.3126 11.0168 11.3697C11.1478 11.4267 11.2888 11.4576 11.4319 11.4604C11.5749 11.4633 11.717 11.4379 11.8503 11.3861C11.9835 11.3342 12.1051 11.2569 12.2083 11.1583C12.3114 11.0596 12.394 10.9418 12.4514 10.8114C12.5088 10.681 12.5398 10.5407 12.5426 10.3984L12.5894 7.90507C12.594 7.76028 12.5693 7.61584 12.5169 7.48069C12.4645 7.34555 12.3854 7.22243 12.2843 7.11823C12.1831 7.01402 12.062 6.93086 11.9281 6.87402C11.7942 6.81719 11.6503 6.78696 11.5047 6.78645Z" fill="#1188EE"/>
<path fill-rule="evenodd" clip-rule="evenodd" d="M38.734 9.19498C38.5851 9.19821 38.4384 9.23179 38.3031 9.29367C38.1677 9.35556 38.0465 9.44447 37.9471 9.55481C37.9471 9.55481 34.4602 13.3807 32.8934 15.7141C31.8083 17.3303 30.5678 19.0772 29.9625 21.1919C29.428 23.0585 29.2575 25.083 29.5966 27.0337C29.8407 28.4321 30.4643 29.7048 31.2131 30.8052C31.7101 31.5359 32.4557 32.2498 33.1061 32.8501C33.7566 33.4503 34.3057 33.9084 34.3057 33.9084C34.416 33.9993 34.5433 34.0678 34.6802 34.1098C34.8171 34.1517 34.9609 34.1663 35.1035 34.1529C35.2461 34.1395 35.3847 34.0984 35.5113 34.0317C35.6379 33.9651 35.7501 33.8743 35.8415 33.7645C35.9328 33.6547 36.0015 33.5279 36.0437 33.3917C36.0858 33.2555 36.1006 33.1124 36.0872 32.9705C36.0737 32.8286 36.0323 32.6906 35.9654 32.5647C35.8984 32.4387 35.8071 32.3272 35.6967 32.2363C35.6967 32.2363 35.189 31.8186 34.5865 31.2627C33.9839 30.7065 33.2829 29.9818 33.0168 29.5906C32.3956 28.6774 31.9189 27.6584 31.7448 26.6609C31.4702 25.0811 31.6032 23.3595 32.0554 21.7803C32.5277 20.1303 33.6057 18.5505 34.7056 16.9121C35.8354 15.2296 38.0175 12.8103 38.8191 11.9085C39.7069 12.7873 42.4331 15.4648 43.9876 17.2973C45.2369 18.7699 46.5126 20.0898 47.2036 21.5602C47.801 22.8314 48.2062 24.2079 48.1607 25.4672C48.1211 26.5567 47.6185 27.7495 47.0207 28.9513C46.3501 30.2995 43.9791 33.2481 43.9791 33.2481C43.8883 33.3581 43.8202 33.4848 43.7787 33.6211C43.7372 33.7574 43.723 33.9003 43.737 34.042C43.751 34.1838 43.793 34.3215 43.8604 34.4471C43.9279 34.5727 44.0195 34.6838 44.1302 34.7741C44.2408 34.8645 44.3682 34.932 44.5051 34.9734C44.642 35.0147 44.7858 35.0289 44.9282 35.0149C45.0706 35.0009 45.2089 34.9593 45.3351 34.8921C45.4612 34.825 45.5729 34.7337 45.6637 34.6236C45.6637 34.6236 48.009 31.8505 48.9732 29.912C49.5999 28.6521 50.2743 27.1991 50.3345 25.5436C50.398 23.7846 49.8659 22.1065 49.1774 20.6416C48.2754 18.7221 46.8275 17.2871 45.6509 15.9004C43.6768 13.573 39.521 9.50401 39.521 9.50401C39.4175 9.40211 39.2946 9.3218 39.1594 9.26801C39.0242 9.21421 38.8796 9.18796 38.734 9.19075V9.19498Z" fill="#1188EE"/>
<path fill-rule="evenodd" clip-rule="evenodd" d="M35.7605 0.114836C33.2364 0.594482 31.3285 2.52362 30.0559 4.40731C28.6145 6.54089 28.0426 9.16502 28.0396 11.6207C28.037 13.8496 29.1586 15.6 29.5157 17.1323H29.5113C29.7617 18.2071 30.175 20.5697 30.175 20.5697L32.3232 20.2014C32.3232 20.2014 31.9221 17.8822 31.6341 16.6455C31.1648 14.6315 30.2158 13.0321 30.2175 11.6207C30.2201 9.50617 30.743 7.27693 31.8638 5.618C32.94 4.02496 34.5576 2.55039 36.1687 2.24414C37.9555 1.90472 40.1517 2.93159 42.1753 4.04325C43.8666 4.97241 45.4357 6.25772 46.3994 7.78964C47.5003 9.54003 48.0113 11.7844 48.1605 13.9913C48.227 14.9796 47.9881 16.7768 47.7096 18.2456C47.4312 19.7143 47.1353 20.8872 47.1353 20.8872L49.2453 21.4163C49.2453 21.4163 49.5575 20.1873 49.8493 18.6478C50.1412 17.1083 50.4312 15.2895 50.3343 13.8474C50.1698 11.4153 49.6233 8.82858 48.2456 6.6382C47.0152 4.68191 45.1592 3.20642 43.2302 2.14677C41.1639 1.01171 38.5623 -0.417694 35.7605 0.114836Z" fill="#1188EE"/>
<path fill-rule="evenodd" clip-rule="evenodd" d="M48.5904 29.7302L46.4421 30.1028C46.4421 30.1028 47.6676 37.3089 47.5822 40.618C47.5234 42.9311 47.6258 45.1974 46.6889 46.6758C45.6544 48.3085 43.7016 49.6869 41.8351 50.02C40.17 50.3174 38.108 49.6861 36.573 48.6527C34.879 47.512 33.5315 45.5654 32.8594 43.5601C32.2666 41.7917 32.7265 39.551 32.8168 37.1426C32.8933 35.0753 33.3911 30.7123 33.3911 30.7123L31.2259 30.4668C31.2259 30.4668 30.7278 34.7774 30.6431 37.0664C30.5629 39.1885 29.9434 41.7186 30.792 44.2501C31.6022 46.6672 33.1701 48.9839 35.3564 50.4557C37.2762 51.7484 39.7818 52.5934 42.2222 52.1578C44.8059 51.6963 47.1581 50.0089 48.5351 47.8354H48.5307C49.9857 45.5395 49.7056 42.8245 49.7601 40.677C49.8603 36.7957 48.5903 29.7345 48.5903 29.7345L48.5904 29.7302Z" fill="#1188EE"/>
<path fill-rule="evenodd" clip-rule="evenodd" d="M38.8148 6.78633C38.5267 6.79629 38.2542 6.91943 38.0573 7.12895C37.8603 7.33847 37.7549 7.61713 37.7641 7.90389L37.8109 10.3973C37.8166 10.6847 37.9369 10.9582 38.1452 11.1574C38.3535 11.3566 38.6328 11.465 38.9216 11.4593C39.2105 11.4535 39.4852 11.334 39.6853 11.1267C39.8854 10.9194 39.9946 10.6413 39.9889 10.3539L39.9421 7.865C39.9416 7.71977 39.9118 7.57601 39.8544 7.44247C39.7971 7.30893 39.7133 7.18838 39.6082 7.08768C39.503 6.98697 39.3786 6.90836 39.2423 6.85644C39.106 6.80452 38.9606 6.78123 38.8148 6.78633Z" fill="#1188EE"/>
<path fill-rule="evenodd" clip-rule="evenodd" d="M5.6087 35.1192C5.4863 35.1248 5.3694 35.1715 5.27689 35.2515L1.42709 38.5065C1.31709 38.5997 1.24879 38.7326 1.23722 38.8759C1.22565 39.0192 1.27175 39.1611 1.36539 39.2706C1.45903 39.3801 1.59253 39.4483 1.73653 39.4598C1.88053 39.4713 2.02323 39.4254 2.13324 39.3323L5.98304 36.0767C6.07032 36.0039 6.13248 35.9057 6.16076 35.796C6.18904 35.6862 6.18203 35.5703 6.14071 35.4647C6.09939 35.3591 6.02584 35.2691 5.93041 35.2073C5.83497 35.1454 5.72246 35.1141 5.6087 35.1192Z" fill="#1188EE"/>
<path fill-rule="evenodd" clip-rule="evenodd" d="M6.38292 36.842C6.24136 36.8464 6.10708 36.9053 6.00857 37.0066L1.19739 41.8917C1.1459 41.9423 1.10505 42.0026 1.07721 42.069C1.04938 42.1354 1.03512 42.2068 1.03528 42.2788C1.03543 42.3508 1.05 42.422 1.07812 42.4883C1.10624 42.5547 1.14735 42.6147 1.19906 42.6651C1.25077 42.7154 1.31203 42.755 1.37928 42.7815C1.44652 42.808 1.5184 42.8208 1.59071 42.8193C1.66303 42.8179 1.73433 42.8022 1.80046 42.773C1.86658 42.7439 1.92621 42.7018 1.97586 42.6495L6.78704 37.7644C6.86368 37.6873 6.91533 37.5891 6.93534 37.4826C6.95534 37.376 6.94277 37.266 6.89926 37.1667C6.85574 37.0673 6.78328 36.9833 6.69124 36.9254C6.59919 36.8674 6.49179 36.8386 6.38292 36.842Z" fill="#1188EE"/>
<path fill-rule="evenodd" clip-rule="evenodd" d="M7.12736 39.1406C6.98778 39.1528 6.85828 39.2179 6.76577 39.3227L1.75891 44.8809C1.66247 44.9881 1.61278 45.129 1.62077 45.2727C1.62876 45.4164 1.69376 45.5511 1.80149 45.6471C1.90923 45.7431 2.05086 45.7923 2.19524 45.7844C2.33962 45.7765 2.47493 45.7119 2.57141 45.6047L7.57402 40.0465C7.64788 39.9662 7.69568 39.8654 7.7112 39.7576C7.72672 39.6498 7.70923 39.5398 7.66101 39.442C7.61279 39.3442 7.53608 39.2632 7.44089 39.2094C7.3457 39.1557 7.23644 39.1317 7.12736 39.1406Z" fill="#1188EE"/>
<path fill-rule="evenodd" clip-rule="evenodd" d="M7.89304 41.4393C7.75218 41.4537 7.62248 41.5221 7.53146 41.6301L2.81386 46.9936C2.76428 47.0468 2.72595 47.1092 2.70115 47.1774C2.67635 47.2457 2.66558 47.3182 2.66948 47.3907C2.67338 47.4632 2.69187 47.5342 2.72386 47.5994C2.75584 47.6647 2.80067 47.723 2.85567 47.7706C2.91068 47.8183 2.97475 47.8544 3.04408 47.877C3.1134 47.8995 3.18657 47.908 3.25925 47.9018C3.33192 47.8957 3.40262 47.8751 3.46714 47.8413C3.53167 47.8074 3.5887 47.7609 3.63486 47.7047L8.34821 42.341C8.42134 42.2599 8.46822 42.159 8.48274 42.051C8.49726 41.9431 8.47874 41.8333 8.4296 41.7359C8.38046 41.6386 8.30298 41.5581 8.20726 41.5052C8.11155 41.4523 8.00205 41.4293 7.89304 41.4393Z" fill="#1188EE"/>
<path fill-rule="evenodd" clip-rule="evenodd" d="M8.77362 42.9718C8.69419 42.9769 8.61685 42.9992 8.54703 43.0372C8.47721 43.0752 8.41661 43.1281 8.36949 43.192L4.32827 48.5554C4.28525 48.6124 4.25393 48.6772 4.2361 48.7462C4.21827 48.8152 4.21428 48.887 4.22435 48.9576C4.23442 49.0282 4.25836 49.096 4.2948 49.1573C4.33124 49.2187 4.37946 49.2725 4.43672 49.3153C4.49398 49.3581 4.55915 49.3891 4.62852 49.4068C4.69788 49.4246 4.77008 49.4288 4.84098 49.4188C4.91189 49.4087 4.98012 49.3849 5.04177 49.3486C5.10343 49.3124 5.1573 49.2643 5.20032 49.2074L9.24155 43.8439C9.3057 43.7612 9.34449 43.6619 9.35326 43.5579C9.36202 43.4538 9.34039 43.3494 9.29096 43.2573C9.24152 43.1652 9.1664 43.0891 9.07462 43.0385C8.98284 42.9879 8.87831 42.9647 8.77362 42.9718Z" fill="#1188EE"/>
<path fill-rule="evenodd" clip-rule="evenodd" d="M9.82855 45.173C9.74951 45.1791 9.67277 45.2025 9.6037 45.2412C9.53464 45.28 9.47491 45.3332 9.42868 45.3973L6.15316 49.8041C6.10995 49.8613 6.07854 49.9266 6.06077 49.9959C6.043 50.0653 6.03921 50.1373 6.04961 50.2081C6.06002 50.2789 6.08442 50.347 6.12141 50.4084C6.15839 50.4698 6.20723 50.5233 6.2651 50.5658C6.32297 50.6083 6.38873 50.639 6.45857 50.656C6.52842 50.6731 6.60097 50.6763 6.67204 50.6653C6.7431 50.6543 6.81128 50.6294 6.87263 50.592C6.93398 50.5547 6.98729 50.5055 7.02947 50.4476L10.3007 46.0408C10.3639 45.9578 10.4017 45.8586 10.4097 45.7548C10.4176 45.651 10.3954 45.5471 10.3456 45.4555C10.2958 45.364 10.2205 45.2887 10.1288 45.2386C10.0372 45.1885 9.9329 45.1657 9.82855 45.173Z" fill="#1188EE"/>
<path fill-rule="evenodd" clip-rule="evenodd" d="M10.7942 47.2811C10.6964 47.2874 10.6021 47.3196 10.5212 47.3748C10.4403 47.4299 10.3759 47.5058 10.3348 47.5944L9.08414 50.1809C9.02155 50.3105 9.01329 50.4594 9.06116 50.5952C9.10903 50.7309 9.20912 50.8422 9.33941 50.9045C9.46971 50.9668 9.61953 50.9751 9.75594 50.9275C9.89235 50.8799 10.0042 50.7804 10.0668 50.6507L11.3175 48.0643C11.3604 47.9789 11.3799 47.8838 11.3741 47.7886C11.3682 47.6933 11.3371 47.6011 11.284 47.5216C11.2309 47.4421 11.1577 47.3781 11.0716 47.3359C10.9856 47.2936 10.8899 47.2747 10.7942 47.2811Z" fill="#1188EE"/>
<path fill-rule="evenodd" clip-rule="evenodd" d="M7.11033 5.56705C6.96878 5.57143 6.8345 5.63036 6.73599 5.73162L1.22291 11.1501C1.17064 11.1998 1.12884 11.2593 1.09994 11.3253C1.07105 11.3912 1.05564 11.4623 1.05462 11.5343C1.0536 11.6062 1.06698 11.6776 1.09399 11.7443C1.12099 11.8111 1.16109 11.8718 1.21192 11.9229C1.26276 11.9741 1.32332 12.0146 1.39008 12.0423C1.45684 12.0699 1.52846 12.084 1.60076 12.0838C1.67306 12.0836 1.74459 12.0692 1.81118 12.0412C1.87777 12.0132 1.93809 11.972 1.98861 11.9206L7.49744 6.50206C7.57751 6.42679 7.63275 6.3293 7.65589 6.22214C7.67902 6.11498 7.66896 6.00336 7.62703 5.90201C7.5851 5.80065 7.51327 5.71425 7.42102 5.65436C7.32877 5.59448 7.22044 5.56441 7.11033 5.56705Z" fill="#1188EE"/>
<path fill-rule="evenodd" clip-rule="evenodd" d="M7.07201 8.27653C6.99306 8.27398 6.9145 8.28843 6.84178 8.31912C6.76905 8.34981 6.70391 8.39581 6.65087 8.45406L0.933604 14.5499C0.884714 14.6018 0.84659 14.6629 0.821412 14.7295C0.796233 14.7961 0.784492 14.8671 0.786858 14.9383C0.789224 15.0094 0.805651 15.0795 0.835202 15.1444C0.864752 15.2092 0.906848 15.2677 0.959083 15.3163C1.01132 15.365 1.07267 15.4027 1.13964 15.4277C1.2066 15.4528 1.27787 15.4645 1.34938 15.4621C1.42088 15.4598 1.49121 15.4434 1.55636 15.414C1.62152 15.3846 1.68021 15.3427 1.72908 15.2907L7.44635 9.19487C7.51974 9.11943 7.56952 9.02463 7.58964 8.92156C7.60977 8.8185 7.59937 8.71169 7.55972 8.61439C7.52006 8.51709 7.45286 8.43336 7.36628 8.37336C7.2797 8.31336 7.17746 8.27979 7.07201 8.27653Z" fill="#1188EE"/>
<path fill-rule="evenodd" clip-rule="evenodd" d="M7.05506 11.3244C6.91326 11.3254 6.77742 11.3814 6.67646 11.4805L1.70788 16.1537C1.64998 16.2007 1.60242 16.2593 1.56817 16.3254C1.53392 16.3915 1.51372 16.4639 1.50881 16.5381C1.5039 16.6124 1.5144 16.6867 1.53965 16.7567C1.5649 16.8267 1.60436 16.8909 1.65557 16.9451C1.70679 16.9992 1.76866 17.0422 1.83734 17.0715C1.90601 17.1009 1.98003 17.1158 2.05477 17.1154C2.1295 17.1151 2.20337 17.0997 2.27177 17.0697C2.34016 17.0397 2.40162 16.996 2.45232 16.9414L7.4209 12.2676C7.50256 12.1942 7.55995 12.0977 7.58546 11.9911C7.61097 11.8846 7.60342 11.773 7.5638 11.6707C7.52418 11.5685 7.45435 11.4805 7.36353 11.4186C7.27271 11.3567 7.16515 11.3243 7.05506 11.3244Z" fill="#1188EE"/>
<path fill-rule="evenodd" clip-rule="evenodd" d="M35.4202 35.1192C35.2978 35.1248 35.1809 35.1715 35.0884 35.2515L31.2386 38.5065C31.1286 38.5997 31.0603 38.7326 31.0487 38.8759C31.0372 39.0192 31.0833 39.1611 31.1769 39.2706C31.2705 39.3801 31.404 39.4483 31.548 39.4598C31.6921 39.4713 31.8348 39.4255 31.9448 39.3323L35.7946 36.0767C35.8819 36.0039 35.944 35.9057 35.9723 35.796C36.0006 35.6862 35.9936 35.5703 35.9522 35.4647C35.9109 35.3591 35.8374 35.2691 35.7419 35.2073C35.6465 35.1454 35.534 35.1141 35.4202 35.1192Z" fill="#1188EE"/>
<path fill-rule="evenodd" clip-rule="evenodd" d="M36.1944 36.842C36.0529 36.8464 35.9186 36.9053 35.8201 37.0066L31.0089 41.8917C30.9574 41.9423 30.9165 42.0026 30.8887 42.069C30.8609 42.1354 30.8466 42.2068 30.8468 42.2788C30.8469 42.3508 30.8615 42.422 30.8896 42.4883C30.9177 42.5547 30.9588 42.6147 31.0106 42.6651C31.0623 42.7154 31.1235 42.755 31.1908 42.7815C31.258 42.808 31.3299 42.8208 31.4022 42.8193C31.4745 42.8179 31.5458 42.8022 31.6119 42.773C31.6781 42.7439 31.7377 42.7018 31.7873 42.6495L36.5985 37.7644C36.6752 37.6873 36.7268 37.5891 36.7468 37.4826C36.7668 37.376 36.7543 37.266 36.7108 37.1667C36.6672 37.0673 36.5948 36.9833 36.5027 36.9254C36.4107 36.8674 36.3033 36.8386 36.1944 36.842Z" fill="#1188EE"/>
<path fill-rule="evenodd" clip-rule="evenodd" d="M36.9388 39.1406C36.7992 39.1528 36.6697 39.2179 36.5772 39.3227L31.5703 44.8809C31.5226 44.9339 31.4858 44.9959 31.4621 45.0631C31.4383 45.1304 31.4282 45.2015 31.4321 45.2727C31.4401 45.4164 31.5051 45.5511 31.6128 45.6471C31.7206 45.7431 31.8622 45.7926 32.0066 45.7846C32.151 45.7767 32.2864 45.712 32.3828 45.6047L37.3854 40.0465C37.4593 39.9662 37.5071 39.8654 37.5226 39.7576C37.5381 39.6498 37.5206 39.5398 37.4724 39.442C37.4242 39.3442 37.3475 39.2632 37.2523 39.2094C37.1571 39.1557 37.0479 39.1317 36.9388 39.1406Z" fill="#1188EE"/>
<path fill-rule="evenodd" clip-rule="evenodd" d="M37.7045 41.4393C37.5636 41.4537 37.4339 41.5221 37.3429 41.6301L32.6253 46.9936C32.5757 47.0468 32.5374 47.1092 32.5126 47.1774C32.4878 47.2457 32.477 47.3182 32.4809 47.3907C32.4848 47.4632 32.5033 47.5342 32.5353 47.5994C32.5673 47.6647 32.6121 47.723 32.6671 47.7706C32.7221 47.8183 32.7862 47.8544 32.8555 47.877C32.9249 47.8995 32.998 47.908 33.0707 47.9018C33.1434 47.8957 33.2141 47.8751 33.2786 47.8413C33.3431 47.8074 33.4002 47.7609 33.4463 47.7047L38.1597 42.341C38.2328 42.2599 38.2797 42.159 38.2942 42.051C38.3087 41.9431 38.2902 41.8333 38.2411 41.7359C38.1919 41.6386 38.1144 41.5581 38.0187 41.5052C37.923 41.4523 37.8135 41.4293 37.7045 41.4393Z" fill="#1188EE"/>
<path fill-rule="evenodd" clip-rule="evenodd" d="M38.5851 42.9718C38.5057 42.9769 38.4284 42.9992 38.3585 43.0372C38.2887 43.0752 38.2281 43.1281 38.181 43.192L34.1398 48.5554C34.0968 48.6124 34.0654 48.6772 34.0476 48.7462C34.0298 48.8152 34.0258 48.887 34.0359 48.9576C34.0459 49.0282 34.0699 49.096 34.1063 49.1573C34.1427 49.2187 34.191 49.2725 34.2482 49.3153C34.3055 49.3581 34.3707 49.3891 34.44 49.4068C34.5094 49.4246 34.5816 49.4288 34.6525 49.4188C34.7234 49.4087 34.7916 49.3849 34.8533 49.3486C34.9149 49.3124 34.9688 49.2643 35.0118 49.2074L39.0531 43.8439C39.1172 43.7612 39.156 43.6619 39.1648 43.5579C39.1735 43.4538 39.1519 43.3494 39.1025 43.2573C39.053 43.1652 38.9779 43.0891 38.8861 43.0385C38.7943 42.9879 38.6898 42.9647 38.5851 42.9718Z" fill="#1188EE"/>
<path fill-rule="evenodd" clip-rule="evenodd" d="M39.64 45.173C39.561 45.1791 39.4842 45.2025 39.4152 45.2412C39.3461 45.28 39.2864 45.3332 39.2402 45.3973L35.9646 49.8041C35.9214 49.8613 35.89 49.9266 35.8723 49.9959C35.8545 50.0653 35.8507 50.1373 35.8611 50.2081C35.8715 50.2789 35.8959 50.347 35.9329 50.4084C35.9699 50.4698 36.0187 50.5233 36.0766 50.5658C36.1345 50.6083 36.2002 50.639 36.2701 50.656C36.3399 50.6731 36.4124 50.6763 36.4835 50.6653C36.5546 50.6543 36.6228 50.6294 36.6841 50.592C36.7455 50.5547 36.7988 50.5055 36.8409 50.4476L40.1122 46.0408C40.1754 45.9578 40.2132 45.8586 40.2211 45.7548C40.2291 45.651 40.2068 45.5471 40.157 45.4555C40.1072 45.364 40.032 45.2887 39.9403 45.2386C39.8486 45.1885 39.7444 45.1657 39.64 45.173Z" fill="#1188EE"/>
<path fill-rule="evenodd" clip-rule="evenodd" d="M40.6057 47.2811C40.5079 47.2874 40.4136 47.3196 40.3327 47.3748C40.2519 47.4299 40.1875 47.5058 40.1463 47.5944L38.8957 50.1809C38.8647 50.2451 38.8467 50.3148 38.8427 50.3859C38.8388 50.457 38.8489 50.5282 38.8726 50.5954C38.9205 50.7312 39.0206 50.8424 39.1509 50.9047C39.2812 50.967 39.4311 50.9751 39.5675 50.9275C39.7039 50.8799 39.8157 50.7804 39.8783 50.6507L41.129 48.0643C41.1719 47.9789 41.1914 47.8838 41.1856 47.7886C41.1797 47.6933 41.1486 47.6011 41.0955 47.5216C41.0424 47.4421 40.9692 47.3781 40.8832 47.3359C40.7972 47.2936 40.7015 47.2747 40.6057 47.2811Z" fill="#1188EE"/>
</svg>
